<svg width="512" height="512" viewBox="0 0 512 512" fill="none" xmlns="http://www.w3.org/2000/svg">
  <rect width="512" height="512" fill="black"/>
  <g transform="translate(256 256) scale(0.78) translate(-256 -256)">
    <path d="M101.429 315.62C101.429 303.425 111.315 293.539 123.511 293.539H227.294C239.489 293.539 249.375 303.425 249.375 315.62V419.404C249.375 431.599 239.489 441.485 227.294 441.485H123.511C111.315 441.485 101.429 431.599 101.429 419.404V315.62Z" fill="white"/>
    <path d="M70.5149 92.5966C70.5149 80.4013 80.4011 70.515 92.5964 70.515H196.38C208.575 70.515 218.461 80.4013 218.461 92.5966V196.38C218.461 208.575 208.575 218.461 196.38 218.461H92.5964C80.4011 218.461 70.5149 208.575 70.5149 196.38V92.5966Z" fill="white"/>
    <path d="M293.539 367.512C293.539 326.658 326.657 293.539 367.512 293.539C408.366 293.539 441.485 326.658 441.485 367.512C441.485 408.366 408.366 441.485 367.512 441.485C326.657 441.485 293.539 408.366 293.539 367.512Z" fill="white"/>
    <path d="M293.539 123.511C293.539 111.315 303.425 101.429 315.62 101.429H419.403C431.599 101.429 441.485 111.315 441.485 123.511V227.294C441.485 239.489 431.599 249.376 419.403 249.376H315.62C303.425 249.376 293.539 239.489 293.539 227.294V123.511Z" fill="white"/>
  </g>
</svg>
