<svg width="401" height="401" viewBox="0 0 401 401" fill="none" xmlns="http://www.w3.org/2000/svg">
<rect width="401" height="401" rx="50" fill="#202376"/>
<path d="M42 120.399C42 117.891 44.0304 115.858 46.535 115.858H62.8612C65.3659 115.858 67.3963 117.891 67.3963 120.399V136.746C67.3963 139.254 65.3659 141.287 62.8612 141.287H46.535C44.0304 141.287 42 139.254 42 136.746V120.399Z" fill="white"/>
<path d="M74.1989 69.5409C74.1989 67.033 76.2293 65 78.7339 65H93.2461C95.7507 65 97.7811 67.033 97.7811 69.5409V84.0718C97.7811 86.5797 95.7507 88.6127 93.2461 88.6127H78.7339C76.2293 88.6127 74.1989 86.5797 74.1989 84.0718V69.5409Z" fill="white"/>
<path d="M187.575 69.5409C187.575 67.033 189.606 65 192.11 65H206.622C209.127 65 211.157 67.033 211.157 69.5409V84.0718C211.157 86.5797 209.127 88.6127 206.622 88.6127H192.11C189.606 88.6127 187.575 86.5797 187.575 84.0718V69.5409Z" fill="white"/>
<path d="M129.526 99.5109C129.526 96.5014 131.963 94.0618 134.969 94.0618H155.83C158.835 94.0618 161.272 96.5014 161.272 99.5109V120.399C161.272 123.408 158.835 125.848 155.83 125.848H134.969C131.963 125.848 129.526 123.408 129.526 120.399V99.5109Z" fill="white"/>
<path d="M89.618 159.905C89.618 156.645 92.2576 154.002 95.5136 154.002H120.003C123.259 154.002 125.898 156.645 125.898 159.905V184.426C125.898 187.686 123.259 190.329 120.003 190.329H95.5136C92.2576 190.329 89.618 187.686 89.618 184.426V159.905Z" fill="white"/>
<path d="M168.528 138.109C168.528 134.848 171.167 132.205 174.423 132.205H198.913C202.169 132.205 204.808 134.848 204.808 138.109V162.629C204.808 165.89 202.169 168.533 198.913 168.533H174.423C171.167 168.533 168.528 165.89 168.528 162.629V138.109Z" fill="white"/>
<path d="M237.554 122.5C237.554 118.738 240.6 115.689 244.356 115.689H269.299C273.056 115.689 276.102 118.738 276.102 122.5V147.475C276.102 151.237 273.056 154.286 269.299 154.286H244.356C240.6 154.286 237.554 151.237 237.554 147.475V122.5Z" fill="white"/>
<path d="M139.504 227.11C139.504 223.348 142.549 220.299 146.306 220.299H171.249C175.006 220.299 178.051 223.348 178.051 227.11V252.085C178.051 255.847 175.006 258.896 171.249 258.896H146.306C142.549 258.896 139.504 255.847 139.504 252.085V227.11Z" fill="white"/>
<path d="M126.788 280.023C126.788 275.007 130.849 270.941 135.858 270.941H183.93C188.939 270.941 193 275.007 193 280.023V328.157C193 333.172 188.939 337.238 183.93 337.238H135.858C130.849 337.238 126.788 333.172 126.788 328.157V280.023Z" fill="white"/>
<path d="M209.797 279.785C209.797 274.769 213.858 270.703 218.867 270.703H266.938C271.948 270.703 276.009 274.769 276.009 279.785V327.918C276.009 332.934 271.948 337 266.938 337H218.867C213.858 337 209.797 332.934 209.797 327.918V279.785Z" fill="white"/>
<path d="M292.788 279.331C292.788 274.315 296.849 270.249 301.858 270.249H349.93C354.939 270.249 359 274.315 359 279.331V327.464C359 332.48 354.939 336.546 349.93 336.546H301.858C296.849 336.546 292.788 332.48 292.788 327.464V279.331Z" fill="white"/>
<path d="M292.788 201.681C292.788 196.665 296.849 192.599 301.858 192.599H349.93C354.939 192.599 359 196.665 359 201.681V249.815C359 254.83 354.939 258.896 349.93 258.896H301.858C296.849 258.896 292.788 254.83 292.788 249.815V201.681Z" fill="white"/>
<path d="M209.797 201.681C209.797 196.665 213.858 192.599 218.867 192.599H266.938C271.948 192.599 276.009 196.665 276.009 201.681V249.815C276.009 254.83 271.948 258.896 266.938 258.896H218.867C213.858 258.896 209.797 254.83 209.797 249.815V201.681Z" fill="white"/>
<path d="M292.788 124.032C292.788 119.016 296.849 114.95 301.858 114.95H349.93C354.939 114.95 359 119.016 359 124.032V172.165C359 177.181 354.939 181.247 349.93 181.247H301.858C296.849 181.247 292.788 177.181 292.788 172.165V124.032Z" fill="white"/>
</svg>
