<svg width="694" height="243" viewBox="0 0 694 243" fill="none" xmlns="http://www.w3.org/2000/svg">
<path fill-rule="evenodd" clip-rule="evenodd" d="M230.825 17.7435C235.985 12.7406 232.444 4 225.257 4L8 4C3.58172 4 0 7.58173 0 12V222.65C0 229.718 8.49457 233.313 13.5688 228.393L230.825 17.7435Z" fill="#2A4477"/>
<path d="M50.7545 207.499C50.7545 203.08 54.3362 199.499 58.7545 199.499H84.7366C89.1549 199.499 92.7366 203.08 92.7366 207.499V233.481C92.7366 237.899 89.1549 241.481 84.7366 241.481H58.7545C54.3362 241.481 50.7545 237.899 50.7545 233.481V207.499Z" fill="#2A4477"/>
<path d="M50.7545 158.624C50.7545 154.206 54.3362 150.624 58.7545 150.624H84.7366C89.1549 150.624 92.7366 154.206 92.7366 158.624V184.606C92.7366 189.024 89.1549 192.606 84.7366 192.606H58.7545C54.3362 192.606 50.7545 189.024 50.7545 184.606V158.624Z" fill="#2A4477"/>
<path d="M0 207.499C0 203.08 3.58172 199.499 8 199.499H33.9821C38.4004 199.499 41.9821 203.08 41.9821 207.499V233.481C41.9821 237.899 38.4004 241.481 33.9821 241.481H8.00001C3.58173 241.481 0 237.899 0 233.481V207.499Z" fill="#2A4477"/>
<path d="M0 207.499C0 203.08 3.58172 199.499 8 199.499H33.9821C38.4004 199.499 41.9821 203.08 41.9821 207.499V233.481C41.9821 237.899 38.4004 241.481 33.9821 241.481H8.00001C3.58173 241.481 0 237.899 0 233.481V207.499Z" fill="#2A4477"/>
<path d="M203.018 207.499C203.018 203.08 206.6 199.499 211.018 199.499H237C241.418 199.499 245 203.08 245 207.499V233.481C245 237.899 241.418 241.481 237 241.481H211.018C206.6 241.481 203.018 237.899 203.018 233.481V207.499Z" fill="#2A4477"/>
<path d="M152.263 207.499C152.263 203.08 155.845 199.499 160.263 199.499H186.246C190.664 199.499 194.246 203.08 194.246 207.499V233.481C194.246 237.899 190.664 241.481 186.246 241.481H160.263C155.845 241.481 152.263 237.899 152.263 233.481V207.499Z" fill="#2A4477"/>
<path d="M152.263 158.624C152.263 154.206 155.845 150.624 160.263 150.624H186.246C190.664 150.624 194.246 154.206 194.246 158.624V184.606C194.246 189.024 190.664 192.606 186.246 192.606H160.263C155.845 192.606 152.263 189.024 152.263 184.606V158.624Z" fill="#2A4477"/>
<path d="M101.509 207.499C101.509 203.08 105.091 199.499 109.509 199.499H135.491C139.909 199.499 143.491 203.08 143.491 207.499V233.481C143.491 237.899 139.909 241.481 135.491 241.481H109.509C105.091 241.481 101.509 237.899 101.509 233.481V207.499Z" fill="#2A4477"/>
<path d="M203.018 158.624C203.018 154.206 206.6 150.624 211.018 150.624H237C241.418 150.624 245 154.206 245 158.624V184.606C245 189.024 241.418 192.606 237 192.606H211.018C206.6 192.606 203.018 189.024 203.018 184.606V158.624Z" fill="#2A4477"/>
<path d="M152.263 109.749C152.263 105.331 155.845 101.749 160.263 101.749H186.246C190.664 101.749 194.246 105.331 194.246 109.749V135.731C194.246 140.15 190.664 143.731 186.246 143.731H160.263C155.845 143.731 152.263 140.15 152.263 135.731V109.749Z" fill="#2A4477"/>
<path d="M152.263 60.8747C152.263 56.4564 155.845 52.8747 160.263 52.8747H186.246C190.664 52.8747 194.246 56.4564 194.246 60.8747V86.8568C194.246 91.2751 190.664 94.8568 186.246 94.8568H160.263C155.845 94.8568 152.263 91.2751 152.263 86.8568V60.8747Z" fill="#2A4477"/>
<path d="M203.018 109.749C203.018 105.331 206.6 101.749 211.018 101.749H237C241.418 101.749 245 105.331 245 109.749V135.731C245 140.15 241.418 143.731 237 143.731H211.018C206.6 143.731 203.018 140.15 203.018 135.731V109.749Z" fill="#2A4477"/>
<path d="M203.018 60.8747C203.018 56.4564 206.6 52.8747 211.018 52.8747H237C241.418 52.8747 245 56.4564 245 60.8747V86.8568C245 91.2751 241.418 94.8568 237 94.8568H211.018C206.6 94.8568 203.018 91.2751 203.018 86.8568V60.8747Z" fill="#2A4477"/>
<path d="M203.018 12C203.018 7.58173 206.6 4 211.018 4H237C241.418 4 245 7.58172 245 12V37.9821C245 42.4004 241.418 45.9821 237 45.9821H211.018C206.6 45.9821 203.018 42.4004 203.018 37.9821V12Z" fill="#2A4477"/>
<path d="M101.509 158.624C101.509 154.206 105.091 150.624 109.509 150.624H135.491C139.909 150.624 143.491 154.206 143.491 158.624V184.606C143.491 189.024 139.909 192.606 135.491 192.606H109.509C105.091 192.606 101.509 189.024 101.509 184.606V158.624Z" fill="#2A4477"/>
<path d="M101.509 109.749C101.509 105.331 105.091 101.749 109.509 101.749H135.491C139.909 101.749 143.491 105.331 143.491 109.749V135.731C143.491 140.15 139.909 143.731 135.491 143.731H109.509C105.091 143.731 101.509 140.15 101.509 135.731V109.749Z" fill="#2A4477"/>
<path d="M633.684 87.6L624.834 69.6L662.034 31.35H693.684L633.684 87.6ZM610.584 111V0H634.584V111H610.584ZM664.584 111L636.534 74.7L653.484 61.5L692.934 111H664.584Z" fill="#152C57"/>
<path d="M563.795 112.5C556.095 112.5 549.195 110.7 543.095 107.1C536.995 103.5 532.145 98.6 528.545 92.4C525.045 86.1 523.295 79 523.295 71.1C523.295 63.2 525.045 56.15 528.545 49.95C532.145 43.65 536.995 38.7 543.095 35.1C549.195 31.5 556.095 29.7 563.795 29.7C570.895 29.7 577.395 30.95 583.295 33.45C589.295 35.95 594.045 39.45 597.545 43.95L584.495 59.55C583.095 57.95 581.445 56.45 579.545 55.05C577.645 53.65 575.545 52.55 573.245 51.75C570.945 50.95 568.545 50.55 566.045 50.55C562.245 50.55 558.895 51.45 555.995 53.25C553.095 54.95 550.845 57.35 549.245 60.45C547.645 63.55 546.845 67.1 546.845 71.1C546.845 74.9 547.645 78.35 549.245 81.45C550.945 84.55 553.245 87 556.145 88.8C559.045 90.6 562.345 91.5 566.045 91.5C568.645 91.5 571.045 91.2 573.245 90.6C575.445 89.9 577.445 88.9 579.245 87.6C581.145 86.3 582.895 84.7 584.495 82.8L597.395 98.55C593.995 102.85 589.245 106.25 583.145 108.75C577.145 111.25 570.695 112.5 563.795 112.5Z" fill="#152C57"/>
<path d="M470.252 112.5C461.952 112.5 454.552 110.7 448.052 107.1C441.652 103.5 436.552 98.6 432.752 92.4C429.052 86.2 427.202 79.1 427.202 71.1C427.202 63.1 429.052 56 432.752 49.8C436.552 43.6 441.652 38.7 448.052 35.1C454.552 31.5 461.952 29.7 470.252 29.7C478.552 29.7 485.902 31.5 492.302 35.1C498.802 38.7 503.902 43.6 507.602 49.8C511.302 56 513.152 63.1 513.152 71.1C513.152 79.1 511.302 86.2 507.602 92.4C503.902 98.6 498.802 103.5 492.302 107.1C485.902 110.7 478.552 112.5 470.252 112.5ZM470.252 91.8C473.852 91.8 477.052 90.9 479.852 89.1C482.652 87.3 484.852 84.85 486.452 81.75C488.052 78.65 488.802 75.1 488.702 71.1C488.802 67.1 488.052 63.55 486.452 60.45C484.852 57.25 482.652 54.75 479.852 52.95C477.052 51.15 473.852 50.25 470.252 50.25C466.652 50.25 463.402 51.15 460.502 52.95C457.702 54.75 455.502 57.25 453.902 60.45C452.302 63.55 451.552 67.1 451.652 71.1C451.552 75.1 452.302 78.65 453.902 81.75C455.502 84.85 457.702 87.3 460.502 89.1C463.402 90.9 466.652 91.8 470.252 91.8Z" fill="#152C57"/>
<path d="M380.318 111V11.25H404.318V111H380.318ZM366.218 52.35V31.35H419.768V52.35H366.218Z" fill="#152C57"/>
<path d="M316 112.5C309.1 112.5 302.85 111.7 297.25 110.1C291.75 108.4 286.85 106 282.55 102.9C278.25 99.7 274.4 95.95 271 91.65L286.45 74.1C291.45 80.8 296.45 85.3 301.45 87.6C306.55 89.9 311.8 91.05 317.2 91.05C319.9 91.05 322.35 90.7 324.55 90C326.75 89.3 328.45 88.3 329.65 87C330.85 85.6 331.45 83.9 331.45 81.9C331.45 80.4 331.05 79.05 330.25 77.85C329.55 76.65 328.55 75.6 327.25 74.7C325.95 73.8 324.4 73 322.6 72.3C320.8 71.5 318.9 70.85 316.9 70.35C314.9 69.75 312.85 69.25 310.75 68.85C304.95 67.55 299.9 65.95 295.6 64.05C291.3 62.15 287.7 59.85 284.8 57.15C282 54.35 279.9 51.2 278.5 47.7C277.1 44.1 276.4 40.1 276.4 35.7C276.4 31 277.45 26.7 279.55 22.8C281.75 18.8 284.65 15.4 288.25 12.6C291.95 9.69997 296.2 7.49997 301 5.99997C305.8 4.39997 310.8 3.59998 316 3.59998C322.9 3.59998 328.8 4.34997 333.7 5.84997C338.7 7.24997 342.95 9.29997 346.45 12C350.05 14.7 353.1 17.95 355.6 21.75L339.85 36.9C337.75 34.3 335.45 32.15 332.95 30.45C330.55 28.75 327.95 27.45 325.15 26.55C322.45 25.65 319.65 25.2 316.75 25.2C313.75 25.2 311.15 25.6 308.95 26.4C306.85 27.1 305.2 28.15 304 29.55C302.8 30.85 302.2 32.45 302.2 34.35C302.2 36.05 302.7 37.5 303.7 38.7C304.7 39.9 306.05 41 307.75 42C309.45 42.9 311.4 43.7 313.6 44.4C315.8 45 318.1 45.5 320.5 45.9C326 47 330.95 48.45 335.35 50.25C339.85 52.05 343.7 54.25 346.9 56.85C350.2 59.45 352.7 62.55 354.4 66.15C356.2 69.65 357.1 73.75 357.1 78.45C357.1 85.75 355.3 91.95 351.7 97.05C348.2 102.05 343.35 105.9 337.15 108.6C331.05 111.2 324 112.5 316 112.5Z" fill="#152C57"/>
<path d="M582.76 241.15V141.4H606.76V241.15H582.76ZM568.66 182.5V161.5H622.21V182.5H568.66Z" fill="#152C57"/>
<path d="M521.784 241.15V157.6C521.784 152.4 522.884 147.7 525.084 143.5C527.384 139.3 530.534 136 534.534 133.6C538.634 131.1 543.384 129.85 548.784 129.85C552.584 129.85 556.084 130.4 559.284 131.5C562.484 132.6 565.334 134.15 567.834 136.15L560.934 153.7C559.634 153 558.384 152.45 557.184 152.05C555.984 151.65 554.884 151.45 553.884 151.45C552.084 151.45 550.584 151.75 549.384 152.35C548.184 152.95 547.284 153.9 546.684 155.2C546.184 156.4 545.934 157.9 545.934 159.7V241.15H533.934C531.234 241.15 528.834 241.15 526.734 241.15C524.734 241.15 523.084 241.15 521.784 241.15ZM510.234 183.55V163.75H562.284V183.55H510.234Z" fill="#152C57"/>
<path d="M470.283 241.15V161.5H494.283V241.15H470.283ZM482.283 145.75C477.783 145.75 474.233 144.7 471.633 142.6C469.133 140.4 467.883 137.3 467.883 133.3C467.883 129.7 469.183 126.75 471.783 124.45C474.383 122.15 477.883 121 482.283 121C486.783 121 490.283 122.1 492.783 124.3C495.283 126.4 496.533 129.4 496.533 133.3C496.533 137 495.233 140 492.633 142.3C490.133 144.6 486.683 145.75 482.283 145.75Z" fill="#152C57"/>
<path d="M373.718 241.15V130.15H397.268V177.7L392.468 179.5C393.568 175.9 395.518 172.65 398.318 169.75C401.218 166.75 404.668 164.35 408.668 162.55C412.668 160.75 416.868 159.85 421.268 159.85C427.268 159.85 432.318 161.1 436.418 163.6C440.518 166 443.618 169.65 445.718 174.55C447.818 179.35 448.868 185.25 448.868 192.25V241.15H424.718V194.2C424.718 191 424.268 188.35 423.368 186.25C422.468 184.15 421.068 182.6 419.168 181.6C417.368 180.5 415.118 180 412.418 180.1C410.318 180.1 408.368 180.45 406.568 181.15C404.768 181.75 403.218 182.7 401.918 184C400.618 185.2 399.568 186.6 398.768 188.2C398.068 189.8 397.718 191.55 397.718 193.45V241.15H385.868C383.068 241.15 380.668 241.15 378.668 241.15C376.668 241.15 375.018 241.15 373.718 241.15Z" fill="#152C57"/>
<path d="M316 242.65C309.1 242.65 302.85 241.85 297.25 240.25C291.75 238.55 286.85 236.15 282.55 233.05C278.25 229.85 274.4 226.1 271 221.8L286.45 204.25C291.45 210.95 296.45 215.45 301.45 217.75C306.55 220.05 311.8 221.2 317.2 221.2C319.9 221.2 322.35 220.85 324.55 220.15C326.75 219.45 328.45 218.45 329.65 217.15C330.85 215.75 331.45 214.05 331.45 212.05C331.45 210.55 331.05 209.2 330.25 208C329.55 206.8 328.55 205.75 327.25 204.85C325.95 203.95 324.4 203.15 322.6 202.45C320.8 201.65 318.9 201 316.9 200.5C314.9 199.9 312.85 199.4 310.75 199C304.95 197.7 299.9 196.1 295.6 194.2C291.3 192.3 287.7 190 284.8 187.3C282 184.5 279.9 181.35 278.5 177.85C277.1 174.25 276.4 170.25 276.4 165.85C276.4 161.15 277.45 156.85 279.55 152.95C281.75 148.95 284.65 145.55 288.25 142.75C291.95 139.85 296.2 137.65 301 136.15C305.8 134.55 310.8 133.75 316 133.75C322.9 133.75 328.8 134.5 333.7 136C338.7 137.4 342.95 139.45 346.45 142.15C350.05 144.85 353.1 148.1 355.6 151.9L339.85 167.05C337.75 164.45 335.45 162.3 332.95 160.6C330.55 158.9 327.95 157.6 325.15 156.7C322.45 155.8 319.65 155.35 316.75 155.35C313.75 155.35 311.15 155.75 308.95 156.55C306.85 157.25 305.2 158.3 304 159.7C302.8 161 302.2 162.6 302.2 164.5C302.2 166.2 302.7 167.65 303.7 168.85C304.7 170.05 306.05 171.15 307.75 172.15C309.45 173.05 311.4 173.85 313.6 174.55C315.8 175.15 318.1 175.65 320.5 176.05C326 177.15 330.95 178.6 335.35 180.4C339.85 182.2 343.7 184.4 346.9 187C350.2 189.6 352.7 192.7 354.4 196.3C356.2 199.8 357.1 203.9 357.1 208.6C357.1 215.9 355.3 222.1 351.7 227.2C348.2 232.2 343.35 236.05 337.15 238.75C331.05 241.35 324 242.65 316 242.65Z" fill="#152C57"/>
</svg>
