<svg width="242" height="242" viewBox="0 0 242 242" fill="none" xmlns="http://www.w3.org/2000/svg">
<path d="M20.1667 159.893C20.1667 151.937 26.6159 145.488 34.5714 145.488H102.274C110.229 145.488 116.679 151.937 116.679 159.893V227.595C116.679 235.551 110.229 242 102.274 242H34.5714C26.6159 242 20.1667 235.551 20.1667 227.595V159.893Z" fill="#202376"/>
<path d="M0 14.4048C0 6.44923 6.44923 0 14.4048 0H82.1071C90.0627 0 96.5119 6.44923 96.5119 14.4048V82.1071C96.5119 90.0627 90.0627 96.5119 82.1071 96.5119H14.4048C6.44923 96.5119 0 90.0627 0 82.1071V14.4048Z" fill="#202376"/>
<path d="M145.488 193.744C145.488 167.093 167.093 145.488 193.744 145.488C220.395 145.488 242 167.093 242 193.744C242 220.395 220.395 242 193.744 242C167.093 242 145.488 220.395 145.488 193.744Z" fill="#202376"/>
<path d="M145.488 34.5714C145.488 26.6159 151.937 20.1667 159.893 20.1667H227.595C235.551 20.1667 242 26.6159 242 34.5714V102.274C242 110.229 235.551 116.679 227.595 116.679H159.893C151.937 116.679 145.488 110.229 145.488 102.274V34.5714Z" fill="#202376"/>
</svg>
