<svg width="317" height="273" viewBox="0 0 317 273" fill="none" xmlns="http://www.w3.org/2000/svg">
<path d="M0 55.399C0 52.8911 2.03041 50.8581 4.53505 50.8581H20.8612C23.3659 50.8581 25.3963 52.8911 25.3963 55.399V71.7462C25.3963 74.2541 23.3659 76.2871 20.8612 76.2871H4.53505C2.03041 76.2871 0 74.2541 0 71.7462V55.399Z" fill="white"/>
<path d="M32.1989 4.5409C32.1989 2.03303 34.2293 0 36.7339 0H51.2461C53.7507 0 55.7811 2.03303 55.7811 4.5409V19.0718C55.7811 21.5797 53.7507 23.6127 51.2461 23.6127H36.7339C34.2293 23.6127 32.1989 21.5797 32.1989 19.0718V4.5409Z" fill="white"/>
<path d="M145.575 4.5409C145.575 2.03303 147.606 0 150.11 0H164.622C167.127 0 169.157 2.03303 169.157 4.5409V19.0718C169.157 21.5797 167.127 23.6127 164.622 23.6127H150.11C147.606 23.6127 145.575 21.5797 145.575 19.0718V4.5409Z" fill="white"/>
<path d="M87.5265 34.5109C87.5265 31.5014 89.963 29.0618 92.9685 29.0618H113.83C116.835 29.0618 119.272 31.5014 119.272 34.5109V55.399C119.272 58.4084 116.835 60.8481 113.83 60.8481H92.9685C89.963 60.8481 87.5265 58.4084 87.5265 55.399V34.5109Z" fill="white"/>
<path d="M47.618 94.9048C47.618 91.6446 50.2576 89.0017 53.5136 89.0017H78.0029C81.2589 89.0017 83.8984 91.6446 83.8984 94.9048V119.426C83.8984 122.686 81.2589 125.329 78.0029 125.329H53.5136C50.2576 125.329 47.618 122.686 47.618 119.426V94.9048Z" fill="white"/>
<path d="M126.528 73.1085C126.528 69.8483 129.167 67.2053 132.423 67.2053H156.913C160.169 67.2053 162.808 69.8483 162.808 73.1085V97.6294C162.808 100.89 160.169 103.533 156.913 103.533H132.423C129.167 103.533 126.528 100.89 126.528 97.6294V73.1085Z" fill="white"/>
<path d="M195.554 57.5C195.554 53.7382 198.6 50.6886 202.356 50.6886H227.299C231.056 50.6886 234.102 53.7382 234.102 57.5V82.475C234.102 86.2368 231.056 89.2863 227.299 89.2863H202.356C198.6 89.2863 195.554 86.2368 195.554 82.475V57.5Z" fill="white"/>
<path d="M97.5036 162.11C97.5036 158.348 100.549 155.299 104.306 155.299H129.249C133.006 155.299 136.051 158.348 136.051 162.11V187.085C136.051 190.847 133.006 193.896 129.249 193.896H104.306C100.549 193.896 97.5036 190.847 97.5036 187.085V162.11Z" fill="white"/>
<path d="M84.7883 215.023C84.7883 210.007 88.8491 205.941 93.8584 205.941H141.93C146.939 205.941 151 210.007 151 215.023V263.157C151 268.172 146.939 272.238 141.93 272.238H93.8584C88.8491 272.238 84.7883 268.172 84.7883 263.157V215.023Z" fill="white"/>
<path d="M167.797 214.785C167.797 209.769 171.858 205.703 176.867 205.703H224.938C229.948 205.703 234.009 209.769 234.009 214.785V262.918C234.009 267.934 229.948 272 224.938 272H176.867C171.858 272 167.797 267.934 167.797 262.918V214.785Z" fill="white"/>
<path d="M250.788 214.331C250.788 209.315 254.849 205.249 259.858 205.249H307.93C312.939 205.249 317 209.315 317 214.331V262.464C317 267.48 312.939 271.546 307.93 271.546H259.858C254.849 271.546 250.788 267.48 250.788 262.464V214.331Z" fill="white"/>
<path d="M250.788 136.681C250.788 131.665 254.849 127.599 259.858 127.599H307.93C312.939 127.599 317 131.665 317 136.681V184.815C317 189.83 312.939 193.896 307.93 193.896H259.858C254.849 193.896 250.788 189.83 250.788 184.815V136.681Z" fill="white"/>
<path d="M167.797 136.681C167.797 131.665 171.858 127.599 176.867 127.599H224.938C229.948 127.599 234.009 131.665 234.009 136.681V184.815C234.009 189.83 229.948 193.896 224.938 193.896H176.867C171.858 193.896 167.797 189.83 167.797 184.815V136.681Z" fill="white"/>
<path d="M250.788 59.0317C250.788 54.016 254.849 49.9499 259.858 49.9499H307.93C312.939 49.9499 317 54.016 317 59.0317V107.165C317 112.181 312.939 116.247 307.93 116.247H259.858C254.849 116.247 250.788 112.181 250.788 107.165V59.0317Z" fill="white"/>
</svg>
