<svg width="700" height="303" viewBox="0 0 700 303" fill="none" xmlns="http://www.w3.org/2000/svg">
<path d="M0 55.399C0 52.8911 2.03041 50.8581 4.53505 50.8581H20.8612C23.3659 50.8581 25.3963 52.8911 25.3963 55.399V71.7462C25.3963 74.2541 23.3659 76.2871 20.8612 76.2871H4.53505C2.03041 76.2871 0 74.2541 0 71.7462V55.399Z" fill="white"/>
<path d="M32.1989 4.5409C32.1989 2.03303 34.2293 0 36.7339 0H51.2461C53.7507 0 55.7811 2.03303 55.7811 4.5409V19.0718C55.7811 21.5797 53.7507 23.6127 51.2461 23.6127H36.7339C34.2293 23.6127 32.1989 21.5797 32.1989 19.0718V4.5409Z" fill="white"/>
<path d="M145.575 4.5409C145.575 2.03303 147.606 0 150.11 0H164.622C167.127 0 169.157 2.03303 169.157 4.5409V19.0718C169.157 21.5797 167.127 23.6127 164.622 23.6127H150.11C147.606 23.6127 145.575 21.5797 145.575 19.0718V4.5409Z" fill="white"/>
<path d="M87.5265 34.5109C87.5265 31.5014 89.963 29.0618 92.9685 29.0618H113.83C116.835 29.0618 119.272 31.5014 119.272 34.5109V55.399C119.272 58.4084 116.835 60.8481 113.83 60.8481H92.9685C89.963 60.8481 87.5265 58.4084 87.5265 55.399V34.5109Z" fill="white"/>
<path d="M47.618 94.9048C47.618 91.6446 50.2576 89.0017 53.5136 89.0017H78.0029C81.2589 89.0017 83.8984 91.6446 83.8984 94.9048V119.426C83.8984 122.686 81.2589 125.329 78.0029 125.329H53.5136C50.2576 125.329 47.618 122.686 47.618 119.426V94.9048Z" fill="white"/>
<path d="M126.528 73.1085C126.528 69.8483 129.167 67.2053 132.423 67.2053H156.913C160.169 67.2053 162.808 69.8483 162.808 73.1085V97.6294C162.808 100.89 160.169 103.533 156.913 103.533H132.423C129.167 103.533 126.528 100.89 126.528 97.6294V73.1085Z" fill="white"/>
<path d="M195.554 57.5C195.554 53.7382 198.6 50.6886 202.356 50.6886H227.299C231.056 50.6886 234.102 53.7382 234.102 57.5V82.475C234.102 86.2368 231.056 89.2863 227.299 89.2863H202.356C198.6 89.2863 195.554 86.2368 195.554 82.475V57.5Z" fill="white"/>
<path d="M97.5036 162.11C97.5036 158.348 100.549 155.299 104.306 155.299H129.249C133.006 155.299 136.051 158.348 136.051 162.11V187.085C136.051 190.847 133.006 193.896 129.249 193.896H104.306C100.549 193.896 97.5036 190.847 97.5036 187.085V162.11Z" fill="white"/>
<path d="M84.7883 215.023C84.7883 210.007 88.8491 205.941 93.8584 205.941H141.93C146.939 205.941 151 210.007 151 215.023V263.157C151 268.172 146.939 272.238 141.93 272.238H93.8584C88.8491 272.238 84.7883 268.172 84.7883 263.157V215.023Z" fill="white"/>
<path d="M167.797 214.785C167.797 209.769 171.858 205.703 176.867 205.703H224.938C229.948 205.703 234.009 209.769 234.009 214.785V262.918C234.009 267.934 229.948 272 224.938 272H176.867C171.858 272 167.797 267.934 167.797 262.918V214.785Z" fill="white"/>
<path d="M250.788 214.331C250.788 209.315 254.849 205.249 259.858 205.249H307.93C312.939 205.249 317 209.315 317 214.331V262.464C317 267.48 312.939 271.546 307.93 271.546H259.858C254.849 271.546 250.788 267.48 250.788 262.464V214.331Z" fill="white"/>
<path d="M250.788 136.681C250.788 131.665 254.849 127.599 259.858 127.599H307.93C312.939 127.599 317 131.665 317 136.681V184.815C317 189.83 312.939 193.896 307.93 193.896H259.858C254.849 193.896 250.788 189.83 250.788 184.815V136.681Z" fill="white"/>
<path d="M167.797 136.681C167.797 131.665 171.858 127.599 176.867 127.599H224.938C229.948 127.599 234.009 131.665 234.009 136.681V184.815C234.009 189.83 229.948 193.896 224.938 193.896H176.867C171.858 193.896 167.797 189.83 167.797 184.815V136.681Z" fill="white"/>
<path d="M250.788 59.0317C250.788 54.016 254.849 49.9499 259.858 49.9499H307.93C312.939 49.9499 317 54.016 317 59.0317V107.165C317 112.181 312.939 116.247 307.93 116.247H259.858C254.849 116.247 250.788 112.181 250.788 107.165V59.0317Z" fill="white"/>
<path d="M397.591 78.6818C397.227 75.0151 395.667 72.1667 392.909 70.1364C390.152 68.1061 386.409 67.0909 381.682 67.0909C378.47 67.0909 375.758 67.5455 373.545 68.4545C371.333 69.3333 369.636 70.5606 368.455 72.1364C367.303 73.7121 366.727 75.5 366.727 77.5C366.667 79.1667 367.015 80.6212 367.773 81.8636C368.561 83.1061 369.636 84.1818 371 85.0909C372.364 85.9697 373.939 86.7424 375.727 87.4091C377.515 88.0455 379.424 88.5909 381.455 89.0455L389.818 91.0455C393.879 91.9545 397.606 93.1667 401 94.6818C404.394 96.197 407.333 98.0606 409.818 100.273C412.303 102.485 414.227 105.091 415.591 108.091C416.985 111.091 417.697 114.53 417.727 118.409C417.697 124.106 416.242 129.045 413.364 133.227C410.515 137.379 406.394 140.606 401 142.909C395.636 145.182 389.167 146.318 381.591 146.318C374.076 146.318 367.53 145.167 361.955 142.864C356.409 140.561 352.076 137.152 348.955 132.636C345.864 128.091 344.242 122.47 344.091 115.773H363.136C363.348 118.894 364.242 121.5 365.818 123.591C367.424 125.652 369.561 127.212 372.227 128.273C374.924 129.303 377.97 129.818 381.364 129.818C384.697 129.818 387.591 129.333 390.045 128.364C392.53 127.394 394.455 126.045 395.818 124.318C397.182 122.591 397.864 120.606 397.864 118.364C397.864 116.273 397.242 114.515 396 113.091C394.788 111.667 393 110.455 390.636 109.455C388.303 108.455 385.439 107.545 382.045 106.727L371.909 104.182C364.061 102.273 357.864 99.2879 353.318 95.2273C348.773 91.1667 346.515 85.697 346.545 78.8182C346.515 73.1818 348.015 68.2576 351.045 64.0455C354.106 59.8333 358.303 56.5455 363.636 54.1818C368.97 51.8182 375.03 50.6364 381.818 50.6364C388.727 50.6364 394.758 51.8182 399.909 54.1818C405.091 56.5455 409.121 59.8333 412 64.0455C414.879 68.2576 416.364 73.1364 416.455 78.6818H397.591ZM467.739 75.1818V89.7273H425.693V75.1818H467.739ZM435.239 58.4545H454.602V123.545C454.602 125.333 454.875 126.727 455.42 127.727C455.966 128.697 456.723 129.379 457.693 129.773C458.693 130.167 459.845 130.364 461.148 130.364C462.057 130.364 462.966 130.288 463.875 130.136C464.784 129.955 465.481 129.818 465.966 129.727L469.011 144.136C468.042 144.439 466.678 144.788 464.92 145.182C463.163 145.606 461.027 145.864 458.511 145.955C453.845 146.136 449.754 145.515 446.239 144.091C442.754 142.667 440.042 140.455 438.102 137.455C436.163 134.455 435.208 130.667 435.239 126.091V58.4545ZM511.148 146.364C504.087 146.364 497.981 144.864 492.83 141.864C487.708 138.833 483.754 134.621 480.966 129.227C478.178 123.803 476.784 117.515 476.784 110.364C476.784 103.152 478.178 96.8485 480.966 91.4545C483.754 86.0303 487.708 81.8182 492.83 78.8182C497.981 75.7879 504.087 74.2727 511.148 74.2727C518.208 74.2727 524.299 75.7879 529.42 78.8182C534.572 81.8182 538.542 86.0303 541.33 91.4545C544.117 96.8485 545.511 103.152 545.511 110.364C545.511 117.515 544.117 123.803 541.33 129.227C538.542 134.621 534.572 138.833 529.42 141.864C524.299 144.864 518.208 146.364 511.148 146.364ZM511.239 131.364C514.451 131.364 517.133 130.455 519.284 128.636C521.436 126.788 523.057 124.273 524.148 121.091C525.269 117.909 525.83 114.288 525.83 110.227C525.83 106.167 525.269 102.545 524.148 99.3636C523.057 96.1818 521.436 93.6667 519.284 91.8182C517.133 89.9697 514.451 89.0455 511.239 89.0455C507.996 89.0455 505.269 89.9697 503.057 91.8182C500.875 93.6667 499.223 96.1818 498.102 99.3636C497.011 102.545 496.466 106.167 496.466 110.227C496.466 114.288 497.011 117.909 498.102 121.091C499.223 124.273 500.875 126.788 503.057 128.636C505.269 130.455 507.996 131.364 511.239 131.364ZM589.648 146.364C582.496 146.364 576.345 144.848 571.193 141.818C566.072 138.758 562.133 134.515 559.375 129.091C556.648 123.667 555.284 117.424 555.284 110.364C555.284 103.212 556.663 96.9394 559.42 91.5455C562.208 86.1212 566.163 81.8939 571.284 78.8636C576.405 75.803 582.496 74.2727 589.557 74.2727C595.648 74.2727 600.981 75.3788 605.557 77.5909C610.133 79.803 613.754 82.9091 616.42 86.9091C619.087 90.9091 620.557 95.6061 620.83 101H602.557C602.042 97.5151 600.678 94.7121 598.466 92.5909C596.284 90.4394 593.42 89.3636 589.875 89.3636C586.875 89.3636 584.254 90.1818 582.011 91.8182C579.799 93.4242 578.072 95.7727 576.83 98.8636C575.587 101.955 574.966 105.697 574.966 110.091C574.966 114.545 575.572 118.333 576.784 121.455C578.027 124.576 579.769 126.955 582.011 128.591C584.254 130.227 586.875 131.045 589.875 131.045C592.087 131.045 594.072 130.591 595.83 129.682C597.617 128.773 599.087 127.455 600.239 125.727C601.42 123.97 602.193 121.864 602.557 119.409H620.83C620.527 124.742 619.072 129.439 616.466 133.5C613.89 137.53 610.33 140.682 605.784 142.955C601.239 145.227 595.86 146.364 589.648 146.364ZM650.773 124.909L650.818 101.682H653.636L676 75.1818H698.227L668.182 110.273H663.591L650.773 124.909ZM633.227 145V51.9091H652.591V145H633.227ZM676.864 145L656.318 114.591L669.227 100.909L699.545 145H676.864Z" fill="white"/>
<path d="M397.591 205.682C397.227 202.015 395.667 199.167 392.909 197.136C390.152 195.106 386.409 194.091 381.682 194.091C378.47 194.091 375.758 194.545 373.545 195.455C371.333 196.333 369.636 197.561 368.455 199.136C367.303 200.712 366.727 202.5 366.727 204.5C366.667 206.167 367.015 207.621 367.773 208.864C368.561 210.106 369.636 211.182 371 212.091C372.364 212.97 373.939 213.742 375.727 214.409C377.515 215.045 379.424 215.591 381.455 216.045L389.818 218.045C393.879 218.955 397.606 220.167 401 221.682C404.394 223.197 407.333 225.061 409.818 227.273C412.303 229.485 414.227 232.091 415.591 235.091C416.985 238.091 417.697 241.53 417.727 245.409C417.697 251.106 416.242 256.045 413.364 260.227C410.515 264.379 406.394 267.606 401 269.909C395.636 272.182 389.167 273.318 381.591 273.318C374.076 273.318 367.53 272.167 361.955 269.864C356.409 267.561 352.076 264.152 348.955 259.636C345.864 255.091 344.242 249.47 344.091 242.773H363.136C363.348 245.894 364.242 248.5 365.818 250.591C367.424 252.652 369.561 254.212 372.227 255.273C374.924 256.303 377.97 256.818 381.364 256.818C384.697 256.818 387.591 256.333 390.045 255.364C392.53 254.394 394.455 253.045 395.818 251.318C397.182 249.591 397.864 247.606 397.864 245.364C397.864 243.273 397.242 241.515 396 240.091C394.788 238.667 393 237.455 390.636 236.455C388.303 235.455 385.439 234.545 382.045 233.727L371.909 231.182C364.061 229.273 357.864 226.288 353.318 222.227C348.773 218.167 346.515 212.697 346.545 205.818C346.515 200.182 348.015 195.258 351.045 191.045C354.106 186.833 358.303 183.545 363.636 181.182C368.97 178.818 375.03 177.636 381.818 177.636C388.727 177.636 394.758 178.818 399.909 181.182C405.091 183.545 409.121 186.833 412 191.045C414.879 195.258 416.364 200.136 416.455 205.682H397.591ZM449.966 231.636V272H430.602V178.909H449.42V214.5H450.239C451.814 210.379 454.36 207.152 457.875 204.818C461.39 202.455 465.799 201.273 471.102 201.273C475.951 201.273 480.178 202.333 483.784 204.455C487.42 206.545 490.239 209.561 492.239 213.5C494.269 217.409 495.269 222.091 495.239 227.545V272H475.875V231C475.905 226.697 474.814 223.348 472.602 220.955C470.42 218.561 467.36 217.364 463.42 217.364C460.784 217.364 458.451 217.924 456.42 219.045C454.42 220.167 452.845 221.803 451.693 223.955C450.572 226.076 449.996 228.636 449.966 231.636ZM510.477 272V202.182H529.841V272H510.477ZM520.205 193.182C517.326 193.182 514.856 192.227 512.795 190.318C510.765 188.379 509.75 186.061 509.75 183.364C509.75 180.697 510.765 178.409 512.795 176.5C514.856 174.561 517.326 173.591 520.205 173.591C523.083 173.591 525.538 174.561 527.568 176.5C529.629 178.409 530.659 180.697 530.659 183.364C530.659 186.061 529.629 188.379 527.568 190.318C525.538 192.227 523.083 193.182 520.205 193.182ZM582.898 202.182V216.727H539.807V202.182H582.898ZM549.67 272V197.136C549.67 192.076 550.655 187.879 552.625 184.545C554.625 181.212 557.352 178.712 560.807 177.045C564.261 175.379 568.186 174.545 572.58 174.545C575.549 174.545 578.261 174.773 580.716 175.227C583.201 175.682 585.049 176.091 586.261 176.455L582.807 191C582.049 190.758 581.11 190.53 579.989 190.318C578.898 190.106 577.777 190 576.625 190C573.777 190 571.792 190.667 570.67 192C569.549 193.303 568.989 195.136 568.989 197.5V272H549.67ZM631.864 202.182V216.727H589.818V202.182H631.864ZM599.364 185.455H618.727V250.545C618.727 252.333 619 253.727 619.545 254.727C620.091 255.697 620.848 256.379 621.818 256.773C622.818 257.167 623.97 257.364 625.273 257.364C626.182 257.364 627.091 257.288 628 257.136C628.909 256.955 629.606 256.818 630.091 256.727L633.136 271.136C632.167 271.439 630.803 271.788 629.045 272.182C627.288 272.606 625.152 272.864 622.636 272.955C617.97 273.136 613.879 272.515 610.364 271.091C606.879 269.667 604.167 267.455 602.227 264.455C600.288 261.455 599.333 257.667 599.364 253.091V185.455Z" fill="white"/>
</svg>
