<svg width="638" height="282" viewBox="0 0 638 282" fill="none" xmlns="http://www.w3.org/2000/svg">
<path d="M20.1667 168.893C20.1667 160.937 26.6159 154.488 34.5714 154.488H102.274C110.229 154.488 116.679 160.937 116.679 168.893V236.595C116.679 244.551 110.229 251 102.274 251H34.5714C26.6159 251 20.1667 244.551 20.1667 236.595V168.893Z" fill="#202376"/>
<path d="M0 23.4048C0 15.4492 6.44923 9 14.4048 9H82.1071C90.0627 9 96.5119 15.4492 96.5119 23.4048V91.1071C96.5119 99.0627 90.0627 105.512 82.1071 105.512H14.4048C6.44923 105.512 0 99.0627 0 91.1071V23.4048Z" fill="#202376"/>
<path d="M145.488 202.744C145.488 176.093 167.093 154.488 193.744 154.488C220.395 154.488 242 176.093 242 202.744C242 229.395 220.395 251 193.744 251C167.093 251 145.488 229.395 145.488 202.744Z" fill="#202376"/>
<path d="M145.488 43.5714C145.488 35.6159 151.937 29.1667 159.893 29.1667H227.595C235.551 29.1667 242 35.6159 242 43.5714V111.274C242 119.229 235.551 125.679 227.595 125.679H159.893C151.937 125.679 145.488 119.229 145.488 111.274V43.5714Z" fill="#202376"/>
<path d="M335.591 57.6818C335.227 54.0151 333.667 51.1667 330.909 49.1364C328.152 47.1061 324.409 46.0909 319.682 46.0909C316.47 46.0909 313.758 46.5455 311.545 47.4545C309.333 48.3333 307.636 49.5606 306.455 51.1364C305.303 52.7121 304.727 54.5 304.727 56.5C304.667 58.1667 305.015 59.6212 305.773 60.8636C306.561 62.1061 307.636 63.1818 309 64.0909C310.364 64.9697 311.939 65.7424 313.727 66.4091C315.515 67.0455 317.424 67.5909 319.455 68.0455L327.818 70.0455C331.879 70.9545 335.606 72.1667 339 73.6818C342.394 75.197 345.333 77.0606 347.818 79.2727C350.303 81.4848 352.227 84.0909 353.591 87.0909C354.985 90.0909 355.697 93.5303 355.727 97.4091C355.697 103.106 354.242 108.045 351.364 112.227C348.515 116.379 344.394 119.606 339 121.909C333.636 124.182 327.167 125.318 319.591 125.318C312.076 125.318 305.53 124.167 299.955 121.864C294.409 119.561 290.076 116.152 286.955 111.636C283.864 107.091 282.242 101.47 282.091 94.7727H301.136C301.348 97.8939 302.242 100.5 303.818 102.591C305.424 104.652 307.561 106.212 310.227 107.273C312.924 108.303 315.97 108.818 319.364 108.818C322.697 108.818 325.591 108.333 328.045 107.364C330.53 106.394 332.455 105.045 333.818 103.318C335.182 101.591 335.864 99.6061 335.864 97.3636C335.864 95.2727 335.242 93.5152 334 92.0909C332.788 90.6667 331 89.4545 328.636 88.4545C326.303 87.4545 323.439 86.5455 320.045 85.7273L309.909 83.1818C302.061 81.2727 295.864 78.2879 291.318 74.2273C286.773 70.1667 284.515 64.697 284.545 57.8182C284.515 52.1818 286.015 47.2576 289.045 43.0455C292.106 38.8333 296.303 35.5455 301.636 33.1818C306.97 30.8182 313.03 29.6364 319.818 29.6364C326.727 29.6364 332.758 30.8182 337.909 33.1818C343.091 35.5455 347.121 38.8333 350 43.0455C352.879 47.2576 354.364 52.1364 354.455 57.6818H335.591ZM405.739 54.1818V68.7273H363.693V54.1818H405.739ZM373.239 37.4545H392.602V102.545C392.602 104.333 392.875 105.727 393.42 106.727C393.966 107.697 394.723 108.379 395.693 108.773C396.693 109.167 397.845 109.364 399.148 109.364C400.057 109.364 400.966 109.288 401.875 109.136C402.784 108.955 403.481 108.818 403.966 108.727L407.011 123.136C406.042 123.439 404.678 123.788 402.92 124.182C401.163 124.606 399.027 124.864 396.511 124.955C391.845 125.136 387.754 124.515 384.239 123.091C380.754 121.667 378.042 119.455 376.102 116.455C374.163 113.455 373.208 109.667 373.239 105.091V37.4545ZM449.148 125.364C442.087 125.364 435.981 123.864 430.83 120.864C425.708 117.833 421.754 113.621 418.966 108.227C416.178 102.803 414.784 96.5152 414.784 89.3636C414.784 82.1515 416.178 75.8485 418.966 70.4545C421.754 65.0303 425.708 60.8182 430.83 57.8182C435.981 54.7879 442.087 53.2727 449.148 53.2727C456.208 53.2727 462.299 54.7879 467.42 57.8182C472.572 60.8182 476.542 65.0303 479.33 70.4545C482.117 75.8485 483.511 82.1515 483.511 89.3636C483.511 96.5152 482.117 102.803 479.33 108.227C476.542 113.621 472.572 117.833 467.42 120.864C462.299 123.864 456.208 125.364 449.148 125.364ZM449.239 110.364C452.451 110.364 455.133 109.455 457.284 107.636C459.436 105.788 461.057 103.273 462.148 100.091C463.269 96.9091 463.83 93.2879 463.83 89.2273C463.83 85.1667 463.269 81.5455 462.148 78.3636C461.057 75.1818 459.436 72.6667 457.284 70.8182C455.133 68.9697 452.451 68.0455 449.239 68.0455C445.996 68.0455 443.269 68.9697 441.057 70.8182C438.875 72.6667 437.223 75.1818 436.102 78.3636C435.011 81.5455 434.466 85.1667 434.466 89.2273C434.466 93.2879 435.011 96.9091 436.102 100.091C437.223 103.273 438.875 105.788 441.057 107.636C443.269 109.455 445.996 110.364 449.239 110.364ZM527.648 125.364C520.496 125.364 514.345 123.848 509.193 120.818C504.072 117.758 500.133 113.515 497.375 108.091C494.648 102.667 493.284 96.4242 493.284 89.3636C493.284 82.2121 494.663 75.9394 497.42 70.5455C500.208 65.1212 504.163 60.8939 509.284 57.8636C514.405 54.803 520.496 53.2727 527.557 53.2727C533.648 53.2727 538.981 54.3788 543.557 56.5909C548.133 58.803 551.754 61.9091 554.42 65.9091C557.087 69.9091 558.557 74.6061 558.83 80H540.557C540.042 76.5151 538.678 73.7121 536.466 71.5909C534.284 69.4394 531.42 68.3636 527.875 68.3636C524.875 68.3636 522.254 69.1818 520.011 70.8182C517.799 72.4242 516.072 74.7727 514.83 77.8636C513.587 80.9545 512.966 84.697 512.966 89.0909C512.966 93.5455 513.572 97.3333 514.784 100.455C516.027 103.576 517.769 105.955 520.011 107.591C522.254 109.227 524.875 110.045 527.875 110.045C530.087 110.045 532.072 109.591 533.83 108.682C535.617 107.773 537.087 106.455 538.239 104.727C539.42 102.97 540.193 100.864 540.557 98.4091H558.83C558.527 103.742 557.072 108.439 554.466 112.5C551.89 116.53 548.33 119.682 543.784 121.955C539.239 124.227 533.86 125.364 527.648 125.364ZM588.773 103.909L588.818 80.6818H591.636L614 54.1818H636.227L606.182 89.2727H601.591L588.773 103.909ZM571.227 124V30.9091H590.591V124H571.227ZM614.864 124L594.318 93.5909L607.227 79.9091L637.545 124H614.864Z" fill="#202376"/>
<path d="M335.591 184.682C335.227 181.015 333.667 178.167 330.909 176.136C328.152 174.106 324.409 173.091 319.682 173.091C316.47 173.091 313.758 173.545 311.545 174.455C309.333 175.333 307.636 176.561 306.455 178.136C305.303 179.712 304.727 181.5 304.727 183.5C304.667 185.167 305.015 186.621 305.773 187.864C306.561 189.106 307.636 190.182 309 191.091C310.364 191.97 311.939 192.742 313.727 193.409C315.515 194.045 317.424 194.591 319.455 195.045L327.818 197.045C331.879 197.955 335.606 199.167 339 200.682C342.394 202.197 345.333 204.061 347.818 206.273C350.303 208.485 352.227 211.091 353.591 214.091C354.985 217.091 355.697 220.53 355.727 224.409C355.697 230.106 354.242 235.045 351.364 239.227C348.515 243.379 344.394 246.606 339 248.909C333.636 251.182 327.167 252.318 319.591 252.318C312.076 252.318 305.53 251.167 299.955 248.864C294.409 246.561 290.076 243.152 286.955 238.636C283.864 234.091 282.242 228.47 282.091 221.773H301.136C301.348 224.894 302.242 227.5 303.818 229.591C305.424 231.652 307.561 233.212 310.227 234.273C312.924 235.303 315.97 235.818 319.364 235.818C322.697 235.818 325.591 235.333 328.045 234.364C330.53 233.394 332.455 232.045 333.818 230.318C335.182 228.591 335.864 226.606 335.864 224.364C335.864 222.273 335.242 220.515 334 219.091C332.788 217.667 331 216.455 328.636 215.455C326.303 214.455 323.439 213.545 320.045 212.727L309.909 210.182C302.061 208.273 295.864 205.288 291.318 201.227C286.773 197.167 284.515 191.697 284.545 184.818C284.515 179.182 286.015 174.258 289.045 170.045C292.106 165.833 296.303 162.545 301.636 160.182C306.97 157.818 313.03 156.636 319.818 156.636C326.727 156.636 332.758 157.818 337.909 160.182C343.091 162.545 347.121 165.833 350 170.045C352.879 174.258 354.364 179.136 354.455 184.682H335.591ZM387.966 210.636V251H368.602V157.909H387.42V193.5H388.239C389.814 189.379 392.36 186.152 395.875 183.818C399.39 181.455 403.799 180.273 409.102 180.273C413.951 180.273 418.178 181.333 421.784 183.455C425.42 185.545 428.239 188.561 430.239 192.5C432.269 196.409 433.269 201.091 433.239 206.545V251H413.875V210C413.905 205.697 412.814 202.348 410.602 199.955C408.42 197.561 405.36 196.364 401.42 196.364C398.784 196.364 396.451 196.924 394.42 198.045C392.42 199.167 390.845 200.803 389.693 202.955C388.572 205.076 387.996 207.636 387.966 210.636ZM448.477 251V181.182H467.841V251H448.477ZM458.205 172.182C455.326 172.182 452.856 171.227 450.795 169.318C448.765 167.379 447.75 165.061 447.75 162.364C447.75 159.697 448.765 157.409 450.795 155.5C452.856 153.561 455.326 152.591 458.205 152.591C461.083 152.591 463.538 153.561 465.568 155.5C467.629 157.409 468.659 159.697 468.659 162.364C468.659 165.061 467.629 167.379 465.568 169.318C463.538 171.227 461.083 172.182 458.205 172.182ZM520.898 181.182V195.727H477.807V181.182H520.898ZM487.67 251V176.136C487.67 171.076 488.655 166.879 490.625 163.545C492.625 160.212 495.352 157.712 498.807 156.045C502.261 154.379 506.186 153.545 510.58 153.545C513.549 153.545 516.261 153.773 518.716 154.227C521.201 154.682 523.049 155.091 524.261 155.455L520.807 170C520.049 169.758 519.11 169.53 517.989 169.318C516.898 169.106 515.777 169 514.625 169C511.777 169 509.792 169.667 508.67 171C507.549 172.303 506.989 174.136 506.989 176.5V251H487.67ZM569.864 181.182V195.727H527.818V181.182H569.864ZM537.364 164.455H556.727V229.545C556.727 231.333 557 232.727 557.545 233.727C558.091 234.697 558.848 235.379 559.818 235.773C560.818 236.167 561.97 236.364 563.273 236.364C564.182 236.364 565.091 236.288 566 236.136C566.909 235.955 567.606 235.818 568.091 235.727L571.136 250.136C570.167 250.439 568.803 250.788 567.045 251.182C565.288 251.606 563.152 251.864 560.636 251.955C555.97 252.136 551.879 251.515 548.364 250.091C544.879 248.667 542.167 246.455 540.227 243.455C538.288 240.455 537.333 236.667 537.364 232.091V164.455Z" fill="#202376"/>
</svg>
